<svg width="40" height="40" viewBox="0 0 40 40" fill="none" xmlns="http://www.w3.org/2000/svg">
<path d="M35.9493 21.1C35.716 20.4333 35.0827 20 34.3327 20H22.3493C21.5827 20 20.966 20.4333 20.716 21.1L18.3327 27.95V37.1333C18.3327 37.7666 18.866 38.3333 19.4993 38.3333H20.5327C21.166 38.3333 21.666 37.7 21.666 37.0666V35H34.9994V37.0666C34.9994 37.7 35.516 38.3333 36.1494 38.3333H37.166C37.7994 38.3333 38.3327 37.7666 38.3327 37.1333V27.95L35.9493 21.1ZM22.3493 21.6666H34.3327L36.0494 26.6666H20.6327L22.3493 21.6666ZM21.666 31.6666C20.7493 31.6666 19.9993 30.9166 19.9993 30C19.9993 29.0833 20.7493 28.3333 21.666 28.3333C22.5827 28.3333 23.3327 29.0833 23.3327 30C23.3327 30.9166 22.5827 31.6666 21.666 31.6666ZM34.9994 31.6666C34.0827 31.6666 33.3327 30.9166 33.3327 30C33.3327 29.0833 34.0827 28.3333 34.9994 28.3333C35.916 28.3333 36.666 29.0833 36.666 30C36.666 30.9166 35.916 31.6666 34.9994 31.6666ZM11.0993 24.2166L11.666 28.3333L9.91602 30.1L6.98268 24.8L1.66602 21.85L3.43268 20.05L7.59935 20.6666L14.0493 14.2166L1.66602 7.69995L4.03268 5.34995L19.3493 8.88328L25.8327 2.39995C26.766 1.42495 28.4327 1.42495 29.366 2.39995C30.3494 3.38328 30.3494 4.99995 29.366 5.93328L22.8827 12.4166L24.2493 18.3333H22.3493C20.8993 18.3333 19.6493 19.1666 19.166 20.5166L19.116 20.6166L17.5993 17.7166L11.0993 24.2166Z" fill="#808080"/>
</svg>
