<svg width="31" height="36" viewBox="0 0 31 36" fill="none" xmlns="http://www.w3.org/2000/svg">
<mask id="path-1-outside-1_5_3804" maskUnits="userSpaceOnUse" x="0" y="0" width="31" height="36" fill="black">
<rect fill="white" width="31" height="36"/>
<path d="M19.805 31.0227C19.712 31.5569 19.5487 32.0469 19.3124 32.4957C19.0686 32.9555 18.7494 33.3713 18.3573 33.7347C17.9627 34.0981 17.5354 34.3735 17.0704 34.5579C16.6054 34.7424 16.1128 34.8333 15.5925 34.8333C15.0698 34.8333 14.5771 34.7396 14.1147 34.5579C13.6522 34.3735 13.2224 34.1009 12.8303 33.7347C12.4357 33.3685 12.119 32.9555 11.8752 32.4957C11.6314 32.0359 11.4655 31.5293 11.375 30.9732C11.3298 30.7033 11.4957 30.4445 11.742 30.395C11.7495 30.395 11.8224 30.3867 11.8224 30.3867H19.3677C19.619 30.3867 19.8251 30.6097 19.8251 30.8878C19.8226 30.9346 19.8151 30.9787 19.805 31.0227ZM6.07928 1.06985C6.53923 0.868858 7.05951 1.11665 7.24299 1.6205C7.42647 2.12435 7.20026 2.69428 6.74031 2.89527C5.745 3.33029 4.91054 3.93325 4.24449 4.71518C3.58095 5.49711 3.08078 6.46626 2.75404 7.6309C2.60826 8.14852 2.10558 8.44036 1.63305 8.28067C1.16053 8.12098 0.894111 7.57033 1.03989 7.05271C1.44958 5.59348 2.08296 4.37102 2.92997 3.37434C3.77699 2.38041 4.83011 1.615 6.07928 1.06985ZM24.4423 2.89527C23.9823 2.69428 23.7561 2.12435 23.9396 1.6205C24.1231 1.11665 24.6433 0.868858 25.1033 1.06985C26.3525 1.615 27.4056 2.38041 28.2526 3.37709C29.0996 4.37653 29.7355 5.59898 30.1427 7.05547C30.2885 7.57308 30.022 8.12374 29.5495 8.28343C29.077 8.44312 28.5743 8.15127 28.4285 7.63365C28.1018 6.46627 27.6016 5.49711 26.9381 4.71794C26.272 3.93325 25.4376 3.33029 24.4423 2.89527ZM17.9954 3.90297C18.3648 4.00759 18.7243 4.13699 19.0736 4.28842C19.5864 4.51144 20.079 4.77851 20.5515 5.08963C20.5691 5.10339 20.5892 5.11441 20.6068 5.12817C21.0592 5.43379 21.4815 5.76969 21.8685 6.13312C22.2757 6.51582 22.6527 6.93707 23.0046 7.39962L23.0071 7.40238C23.3514 7.85667 23.6581 8.344 23.9295 8.85886C24.201 9.37648 24.4347 9.91612 24.6283 10.4723C24.8268 11.0477 24.9751 11.6342 25.0756 12.2371C25.1737 12.8428 25.2239 13.4623 25.2239 14.0983C25.2239 15.3538 25.2239 16.0339 25.2239 16.1165C25.2264 16.7608 25.229 17.3913 25.234 18.0052V18.0107C25.2365 18.5669 25.2692 19.1258 25.332 19.6847C25.3948 20.2381 25.4853 20.7723 25.6035 21.2871C25.7216 21.7937 25.8825 22.2838 26.081 22.7519C26.2871 23.2337 26.5385 23.7073 26.8325 24.1671H26.835C27.1266 24.6186 27.491 25.0674 27.9284 25.5079C28.3808 25.9622 28.9036 26.411 29.5018 26.846C29.8436 27.0965 29.9366 27.6059 29.7053 27.9804C29.5621 28.2144 29.3258 28.3438 29.0845 28.3438V28.3465H22.336H15.5925H8.84403H2.09804C1.68332 28.3465 1.34904 27.9804 1.34904 27.5261C1.34904 27.2287 1.49482 26.9671 1.71097 26.824C2.3167 26.3752 2.83698 25.9292 3.2718 25.4886C3.70411 25.0509 4.06604 24.6021 4.35759 24.1395C4.36513 24.1258 4.37519 24.112 4.38524 24.101C4.66674 23.6495 4.90803 23.1897 5.10659 22.7216C5.31018 22.2453 5.47355 21.7552 5.59419 21.2513C5.5967 21.2403 5.59922 21.2293 5.60173 21.2211C5.71735 20.731 5.80532 20.2134 5.86564 19.671C5.92596 19.1258 5.95864 18.5614 5.95864 17.9805V14.0983C5.95864 13.4733 6.0089 12.8539 6.11195 12.2344C6.215 11.6176 6.36329 11.0257 6.56185 10.4613C6.7579 9.89685 6.99416 9.35445 7.26812 8.83683C7.53957 8.32197 7.85123 7.83464 8.2006 7.37209L8.20563 7.36659C8.55248 6.9123 8.93452 6.48829 9.34923 6.10008C9.75891 5.71737 10.2013 5.36771 10.6763 5.05659C11.1564 4.74272 11.654 4.4784 12.1668 4.26365C12.5237 4.11497 12.8931 3.99107 13.2702 3.8892C13.3983 3.39636 13.6195 2.99714 13.9337 2.69153C14.366 2.27027 14.934 2.06103 15.6403 2.06929C16.339 2.07479 16.9045 2.28679 17.3318 2.70805C17.6435 3.01641 17.8672 3.41288 17.9954 3.90297ZM18.5307 5.81099C18.116 5.63202 17.6938 5.49161 17.264 5.38973C16.9322 5.34293 16.6607 5.05659 16.618 4.67664C16.5778 4.31871 16.4848 4.06816 16.3365 3.92499C16.1882 3.78182 15.952 3.70748 15.6277 3.70473C15.3035 3.70198 15.0698 3.77081 14.9265 3.91123C14.7807 4.0544 14.6877 4.3077 14.65 4.67113C14.6148 5.01804 14.3761 5.3154 14.0443 5.38147C13.5793 5.47784 13.1294 5.6155 12.6946 5.79722C12.2598 5.97618 11.845 6.1992 11.4429 6.46076C11.0433 6.72232 10.6688 7.01692 10.3219 7.34456C9.97507 7.66945 9.65084 8.02737 9.35426 8.41834C9.0627 8.80379 8.8013 9.21954 8.56756 9.66006C8.33884 10.0951 8.13776 10.5576 7.96685 11.0477C7.79594 11.535 7.67027 12.0306 7.58733 12.5262C7.50438 13.0246 7.46417 13.5504 7.46417 14.1011V17.9832C7.46417 18.6275 7.42898 19.2552 7.36112 19.872C7.29326 20.4639 7.19272 21.0531 7.05448 21.6341C7.05197 21.6478 7.04946 21.6588 7.04694 21.6726C6.90368 22.2646 6.71015 22.8455 6.46634 23.4182C6.23008 23.9716 5.94858 24.5085 5.62435 25.0288C5.6143 25.0454 5.60424 25.0619 5.59419 25.0784C5.25237 25.618 4.81755 26.1549 4.29224 26.6891L4.27214 26.7083H8.85157H15.6001H22.3385H26.9104C26.3977 26.1907 25.9654 25.6566 25.6135 25.1114V25.1087C25.2692 24.569 24.9751 24.0156 24.7313 23.4485C24.4825 22.8703 24.2915 22.2838 24.1532 21.6946V21.6919C24.0175 21.1054 23.9144 20.5025 23.8466 19.8857C23.7812 19.2965 23.746 18.6743 23.7435 18.0218V18.019C23.7385 17.4105 23.736 16.7773 23.7335 16.1165C23.7285 14.894 23.7285 14.2277 23.7285 14.0983C23.7285 13.5587 23.6882 13.0328 23.6028 12.5235C23.5198 12.0169 23.3967 11.5268 23.2333 11.0532V11.0505C23.0649 10.5631 22.8664 10.1033 22.6401 9.67108C22.4139 9.23881 22.1525 8.82857 21.8585 8.43761C21.5669 8.0549 21.2477 7.69973 20.9009 7.37209C20.5641 7.05547 20.2072 6.77188 19.8327 6.51582C19.8151 6.50756 19.8 6.49655 19.7824 6.48554C19.3752 6.22398 18.958 5.99821 18.5307 5.81099Z"/>
</mask>
<path d="M19.805 31.0227C19.712 31.5569 19.5487 32.0469 19.3124 32.4957C19.0686 32.9555 18.7494 33.3713 18.3573 33.7347C17.9627 34.0981 17.5354 34.3735 17.0704 34.5579C16.6054 34.7424 16.1128 34.8333 15.5925 34.8333C15.0698 34.8333 14.5771 34.7396 14.1147 34.5579C13.6522 34.3735 13.2224 34.1009 12.8303 33.7347C12.4357 33.3685 12.119 32.9555 11.8752 32.4957C11.6314 32.0359 11.4655 31.5293 11.375 30.9732C11.3298 30.7033 11.4957 30.4445 11.742 30.395C11.7495 30.395 11.8224 30.3867 11.8224 30.3867H19.3677C19.619 30.3867 19.8251 30.6097 19.8251 30.8878C19.8226 30.9346 19.8151 30.9787 19.805 31.0227ZM6.07928 1.06985C6.53923 0.868858 7.05951 1.11665 7.24299 1.6205C7.42647 2.12435 7.20026 2.69428 6.74031 2.89527C5.745 3.33029 4.91054 3.93325 4.24449 4.71518C3.58095 5.49711 3.08078 6.46626 2.75404 7.6309C2.60826 8.14852 2.10558 8.44036 1.63305 8.28067C1.16053 8.12098 0.894111 7.57033 1.03989 7.05271C1.44958 5.59348 2.08296 4.37102 2.92997 3.37434C3.77699 2.38041 4.83011 1.615 6.07928 1.06985ZM24.4423 2.89527C23.9823 2.69428 23.7561 2.12435 23.9396 1.6205C24.1231 1.11665 24.6433 0.868858 25.1033 1.06985C26.3525 1.615 27.4056 2.38041 28.2526 3.37709C29.0996 4.37653 29.7355 5.59898 30.1427 7.05547C30.2885 7.57308 30.022 8.12374 29.5495 8.28343C29.077 8.44312 28.5743 8.15127 28.4285 7.63365C28.1018 6.46627 27.6016 5.49711 26.9381 4.71794C26.272 3.93325 25.4376 3.33029 24.4423 2.89527ZM17.9954 3.90297C18.3648 4.00759 18.7243 4.13699 19.0736 4.28842C19.5864 4.51144 20.079 4.77851 20.5515 5.08963C20.5691 5.10339 20.5892 5.11441 20.6068 5.12817C21.0592 5.43379 21.4815 5.76969 21.8685 6.13312C22.2757 6.51582 22.6527 6.93707 23.0046 7.39962L23.0071 7.40238C23.3514 7.85667 23.6581 8.344 23.9295 8.85886C24.201 9.37648 24.4347 9.91612 24.6283 10.4723C24.8268 11.0477 24.9751 11.6342 25.0756 12.2371C25.1737 12.8428 25.2239 13.4623 25.2239 14.0983C25.2239 15.3538 25.2239 16.0339 25.2239 16.1165C25.2264 16.7608 25.229 17.3913 25.234 18.0052V18.0107C25.2365 18.5669 25.2692 19.1258 25.332 19.6847C25.3948 20.2381 25.4853 20.7723 25.6035 21.2871C25.7216 21.7937 25.8825 22.2838 26.081 22.7519C26.2871 23.2337 26.5385 23.7073 26.8325 24.1671H26.835C27.1266 24.6186 27.491 25.0674 27.9284 25.5079C28.3808 25.9622 28.9036 26.411 29.5018 26.846C29.8436 27.0965 29.9366 27.6059 29.7053 27.9804C29.5621 28.2144 29.3258 28.3438 29.0845 28.3438V28.3465H22.336H15.5925H8.84403H2.09804C1.68332 28.3465 1.34904 27.9804 1.34904 27.5261C1.34904 27.2287 1.49482 26.9671 1.71097 26.824C2.3167 26.3752 2.83698 25.9292 3.2718 25.4886C3.70411 25.0509 4.06604 24.6021 4.35759 24.1395C4.36513 24.1258 4.37519 24.112 4.38524 24.101C4.66674 23.6495 4.90803 23.1897 5.10659 22.7216C5.31018 22.2453 5.47355 21.7552 5.59419 21.2513C5.5967 21.2403 5.59922 21.2293 5.60173 21.2211C5.71735 20.731 5.80532 20.2134 5.86564 19.671C5.92596 19.1258 5.95864 18.5614 5.95864 17.9805V14.0983C5.95864 13.4733 6.0089 12.8539 6.11195 12.2344C6.215 11.6176 6.36329 11.0257 6.56185 10.4613C6.7579 9.89685 6.99416 9.35445 7.26812 8.83683C7.53957 8.32197 7.85123 7.83464 8.2006 7.37209L8.20563 7.36659C8.55248 6.9123 8.93452 6.48829 9.34923 6.10008C9.75891 5.71737 10.2013 5.36771 10.6763 5.05659C11.1564 4.74272 11.654 4.4784 12.1668 4.26365C12.5237 4.11497 12.8931 3.99107 13.2702 3.8892C13.3983 3.39636 13.6195 2.99714 13.9337 2.69153C14.366 2.27027 14.934 2.06103 15.6403 2.06929C16.339 2.07479 16.9045 2.28679 17.3318 2.70805C17.6435 3.01641 17.8672 3.41288 17.9954 3.90297ZM18.5307 5.81099C18.116 5.63202 17.6938 5.49161 17.264 5.38973C16.9322 5.34293 16.6607 5.05659 16.618 4.67664C16.5778 4.31871 16.4848 4.06816 16.3365 3.92499C16.1882 3.78182 15.952 3.70748 15.6277 3.70473C15.3035 3.70198 15.0698 3.77081 14.9265 3.91123C14.7807 4.0544 14.6877 4.3077 14.65 4.67113C14.6148 5.01804 14.3761 5.3154 14.0443 5.38147C13.5793 5.47784 13.1294 5.6155 12.6946 5.79722C12.2598 5.97618 11.845 6.1992 11.4429 6.46076C11.0433 6.72232 10.6688 7.01692 10.3219 7.34456C9.97507 7.66945 9.65084 8.02737 9.35426 8.41834C9.0627 8.80379 8.8013 9.21954 8.56756 9.66006C8.33884 10.0951 8.13776 10.5576 7.96685 11.0477C7.79594 11.535 7.67027 12.0306 7.58733 12.5262C7.50438 13.0246 7.46417 13.5504 7.46417 14.1011V17.9832C7.46417 18.6275 7.42898 19.2552 7.36112 19.872C7.29326 20.4639 7.19272 21.0531 7.05448 21.6341C7.05197 21.6478 7.04946 21.6588 7.04694 21.6726C6.90368 22.2646 6.71015 22.8455 6.46634 23.4182C6.23008 23.9716 5.94858 24.5085 5.62435 25.0288C5.6143 25.0454 5.60424 25.0619 5.59419 25.0784C5.25237 25.618 4.81755 26.1549 4.29224 26.6891L4.27214 26.7083H8.85157H15.6001H22.3385H26.9104C26.3977 26.1907 25.9654 25.6566 25.6135 25.1114V25.1087C25.2692 24.569 24.9751 24.0156 24.7313 23.4485C24.4825 22.8703 24.2915 22.2838 24.1532 21.6946V21.6919C24.0175 21.1054 23.9144 20.5025 23.8466 19.8857C23.7812 19.2965 23.746 18.6743 23.7435 18.0218V18.019C23.7385 17.4105 23.736 16.7773 23.7335 16.1165C23.7285 14.894 23.7285 14.2277 23.7285 14.0983C23.7285 13.5587 23.6882 13.0328 23.6028 12.5235C23.5198 12.0169 23.3967 11.5268 23.2333 11.0532V11.0505C23.0649 10.5631 22.8664 10.1033 22.6401 9.67108C22.4139 9.23881 22.1525 8.82857 21.8585 8.43761C21.5669 8.0549 21.2477 7.69973 20.9009 7.37209C20.5641 7.05547 20.2072 6.77188 19.8327 6.51582C19.8151 6.50756 19.8 6.49655 19.7824 6.48554C19.3752 6.22398 18.958 5.99821 18.5307 5.81099Z" fill="#808080"/>
<path d="M19.805 31.0227C19.712 31.5569 19.5487 32.0469 19.3124 32.4957C19.0686 32.9555 18.7494 33.3713 18.3573 33.7347C17.9627 34.0981 17.5354 34.3735 17.0704 34.5579C16.6054 34.7424 16.1128 34.8333 15.5925 34.8333C15.0698 34.8333 14.5771 34.7396 14.1147 34.5579C13.6522 34.3735 13.2224 34.1009 12.8303 33.7347C12.4357 33.3685 12.119 32.9555 11.8752 32.4957C11.6314 32.0359 11.4655 31.5293 11.375 30.9732C11.3298 30.7033 11.4957 30.4445 11.742 30.395C11.7495 30.395 11.8224 30.3867 11.8224 30.3867H19.3677C19.619 30.3867 19.8251 30.6097 19.8251 30.8878C19.8226 30.9346 19.8151 30.9787 19.805 31.0227ZM6.07928 1.06985C6.53923 0.868858 7.05951 1.11665 7.24299 1.6205C7.42647 2.12435 7.20026 2.69428 6.74031 2.89527C5.745 3.33029 4.91054 3.93325 4.24449 4.71518C3.58095 5.49711 3.08078 6.46626 2.75404 7.6309C2.60826 8.14852 2.10558 8.44036 1.63305 8.28067C1.16053 8.12098 0.894111 7.57033 1.03989 7.05271C1.44958 5.59348 2.08296 4.37102 2.92997 3.37434C3.77699 2.38041 4.83011 1.615 6.07928 1.06985ZM24.4423 2.89527C23.9823 2.69428 23.7561 2.12435 23.9396 1.6205C24.1231 1.11665 24.6433 0.868858 25.1033 1.06985C26.3525 1.615 27.4056 2.38041 28.2526 3.37709C29.0996 4.37653 29.7355 5.59898 30.1427 7.05547C30.2885 7.57308 30.022 8.12374 29.5495 8.28343C29.077 8.44312 28.5743 8.15127 28.4285 7.63365C28.1018 6.46627 27.6016 5.49711 26.9381 4.71794C26.272 3.93325 25.4376 3.33029 24.4423 2.89527ZM17.9954 3.90297C18.3648 4.00759 18.7243 4.13699 19.0736 4.28842C19.5864 4.51144 20.079 4.77851 20.5515 5.08963C20.5691 5.10339 20.5892 5.11441 20.6068 5.12817C21.0592 5.43379 21.4815 5.76969 21.8685 6.13312C22.2757 6.51582 22.6527 6.93707 23.0046 7.39962L23.0071 7.40238C23.3514 7.85667 23.6581 8.344 23.9295 8.85886C24.201 9.37648 24.4347 9.91612 24.6283 10.4723C24.8268 11.0477 24.9751 11.6342 25.0756 12.2371C25.1737 12.8428 25.2239 13.4623 25.2239 14.0983C25.2239 15.3538 25.2239 16.0339 25.2239 16.1165C25.2264 16.7608 25.229 17.3913 25.234 18.0052V18.0107C25.2365 18.5669 25.2692 19.1258 25.332 19.6847C25.3948 20.2381 25.4853 20.7723 25.6035 21.2871C25.7216 21.7937 25.8825 22.2838 26.081 22.7519C26.2871 23.2337 26.5385 23.7073 26.8325 24.1671H26.835C27.1266 24.6186 27.491 25.0674 27.9284 25.5079C28.3808 25.9622 28.9036 26.411 29.5018 26.846C29.8436 27.0965 29.9366 27.6059 29.7053 27.9804C29.5621 28.2144 29.3258 28.3438 29.0845 28.3438V28.3465H22.336H15.5925H8.84403H2.09804C1.68332 28.3465 1.34904 27.9804 1.34904 27.5261C1.34904 27.2287 1.49482 26.9671 1.71097 26.824C2.3167 26.3752 2.83698 25.9292 3.2718 25.4886C3.70411 25.0509 4.06604 24.6021 4.35759 24.1395C4.36513 24.1258 4.37519 24.112 4.38524 24.101C4.66674 23.6495 4.90803 23.1897 5.10659 22.7216C5.31018 22.2453 5.47355 21.7552 5.59419 21.2513C5.5967 21.2403 5.59922 21.2293 5.60173 21.2211C5.71735 20.731 5.80532 20.2134 5.86564 19.671C5.92596 19.1258 5.95864 18.5614 5.95864 17.9805V14.0983C5.95864 13.4733 6.0089 12.8539 6.11195 12.2344C6.215 11.6176 6.36329 11.0257 6.56185 10.4613C6.7579 9.89685 6.99416 9.35445 7.26812 8.83683C7.53957 8.32197 7.85123 7.83464 8.2006 7.37209L8.20563 7.36659C8.55248 6.9123 8.93452 6.48829 9.34923 6.10008C9.75891 5.71737 10.2013 5.36771 10.6763 5.05659C11.1564 4.74272 11.654 4.4784 12.1668 4.26365C12.5237 4.11497 12.8931 3.99107 13.2702 3.8892C13.3983 3.39636 13.6195 2.99714 13.9337 2.69153C14.366 2.27027 14.934 2.06103 15.6403 2.06929C16.339 2.07479 16.9045 2.28679 17.3318 2.70805C17.6435 3.01641 17.8672 3.41288 17.9954 3.90297ZM18.5307 5.81099C18.116 5.63202 17.6938 5.49161 17.264 5.38973C16.9322 5.34293 16.6607 5.05659 16.618 4.67664C16.5778 4.31871 16.4848 4.06816 16.3365 3.92499C16.1882 3.78182 15.952 3.70748 15.6277 3.70473C15.3035 3.70198 15.0698 3.77081 14.9265 3.91123C14.7807 4.0544 14.6877 4.3077 14.65 4.67113C14.6148 5.01804 14.3761 5.3154 14.0443 5.38147C13.5793 5.47784 13.1294 5.6155 12.6946 5.79722C12.2598 5.97618 11.845 6.1992 11.4429 6.46076C11.0433 6.72232 10.6688 7.01692 10.3219 7.34456C9.97507 7.66945 9.65084 8.02737 9.35426 8.41834C9.0627 8.80379 8.8013 9.21954 8.56756 9.66006C8.33884 10.0951 8.13776 10.5576 7.96685 11.0477C7.79594 11.535 7.67027 12.0306 7.58733 12.5262C7.50438 13.0246 7.46417 13.5504 7.46417 14.1011V17.9832C7.46417 18.6275 7.42898 19.2552 7.36112 19.872C7.29326 20.4639 7.19272 21.0531 7.05448 21.6341C7.05197 21.6478 7.04946 21.6588 7.04694 21.6726C6.90368 22.2646 6.71015 22.8455 6.46634 23.4182C6.23008 23.9716 5.94858 24.5085 5.62435 25.0288C5.6143 25.0454 5.60424 25.0619 5.59419 25.0784C5.25237 25.618 4.81755 26.1549 4.29224 26.6891L4.27214 26.7083H8.85157H15.6001H22.3385H26.9104C26.3977 26.1907 25.9654 25.6566 25.6135 25.1114V25.1087C25.2692 24.569 24.9751 24.0156 24.7313 23.4485C24.4825 22.8703 24.2915 22.2838 24.1532 21.6946V21.6919C24.0175 21.1054 23.9144 20.5025 23.8466 19.8857C23.7812 19.2965 23.746 18.6743 23.7435 18.0218V18.019C23.7385 17.4105 23.736 16.7773 23.7335 16.1165C23.7285 14.894 23.7285 14.2277 23.7285 14.0983C23.7285 13.5587 23.6882 13.0328 23.6028 12.5235C23.5198 12.0169 23.3967 11.5268 23.2333 11.0532V11.0505C23.0649 10.5631 22.8664 10.1033 22.6401 9.67108C22.4139 9.23881 22.1525 8.82857 21.8585 8.43761C21.5669 8.0549 21.2477 7.69973 20.9009 7.37209C20.5641 7.05547 20.2072 6.77188 19.8327 6.51582C19.8151 6.50756 19.8 6.49655 19.7824 6.48554C19.3752 6.22398 18.958 5.99821 18.5307 5.81099Z" stroke="#808080" mask="url(#path-1-outside-1_5_3804)"/>
</svg>
