<svg width="41" height="41" viewBox="0 0 41 41" fill="none" xmlns="http://www.w3.org/2000/svg">
<g clip-path="url(#clip0_27_3661)">
<path d="M15.0344 33.4091C15.4775 33.4091 15.9023 33.585 16.2156 33.8983C16.5289 34.2116 16.7049 34.6365 16.7049 35.0795C16.7049 35.5225 16.5289 35.9474 16.2156 36.2607C15.9023 36.574 15.4775 36.75 15.0344 36.75C14.5914 36.75 14.1665 36.574 13.8532 36.2607C13.54 35.9474 13.364 35.5225 13.364 35.0795C13.364 34.6365 13.54 34.2116 13.8532 33.8983C14.1665 33.585 14.5914 33.4091 15.0344 33.4091ZM26.7276 33.4091C27.1706 33.4091 27.5955 33.585 27.9088 33.8983C28.2221 34.2116 28.3981 34.6365 28.3981 35.0795C28.3981 35.5225 28.2221 35.9474 27.9088 36.2607C27.5955 36.574 27.1706 36.75 26.7276 36.75C26.2846 36.75 25.8597 36.574 25.5464 36.2607C25.2331 35.9474 25.0571 35.5225 25.0571 35.0795C25.0571 34.6365 25.2331 34.2116 25.5464 33.8983C25.8597 33.585 26.2846 33.4091 26.7276 33.4091ZM5.83857 4.39493L6.01397 4.51186L8.86711 6.65004C9.35265 7.01436 9.72975 7.50407 9.95791 8.06658L10.0581 8.35223H31.5168C31.9697 8.35212 32.4178 8.44408 32.8341 8.62253C33.2503 8.80097 33.6259 9.06218 33.9381 9.39028C34.2502 9.71837 34.4924 10.1065 34.6499 10.5311C34.8075 10.9557 34.877 11.4079 34.8544 11.8602L34.8326 12.1074L34.0693 18.2129C33.8401 20.0503 33.007 21.7595 31.7007 23.0718C30.3945 24.3841 28.6892 25.2251 26.8529 25.4627L26.4754 25.5011L14.2593 26.5201L14.6937 28.3977H29.2333C29.659 28.3982 30.0686 28.5612 30.3782 28.8535C30.6878 29.1457 30.8741 29.5452 30.899 29.9702C30.924 30.3953 30.7857 30.8138 30.5124 31.1403C30.2391 31.4668 29.8515 31.6766 29.4287 31.7269L29.2333 31.7386H14.6937C13.9847 31.7387 13.2941 31.5133 12.7218 31.095C12.1494 30.6767 11.7249 30.0871 11.5098 29.4117L11.4379 29.1494L6.86089 9.3211L4.00943 7.18291C3.68351 6.93864 3.45808 6.58371 3.37551 6.18488C3.29294 5.78604 3.35893 5.37078 3.56107 5.01719C3.76321 4.6636 4.08757 4.39604 4.47315 4.26483C4.85874 4.13363 5.27897 4.14781 5.65482 4.30472L5.83857 4.39493ZM31.5168 11.6931H10.8366L13.5009 23.2293L26.1964 22.1719C27.3422 22.0766 28.4204 21.5901 29.2501 20.7942C30.0798 19.9982 30.6106 18.9412 30.7534 17.8003L31.5168 11.6931Z" fill="#808080"/>
<!-- <circle cx="31.8457" cy="8" r="8" fill="#F13333"/> -->
<!-- <path d="M33.3646 3.59539V12H31.8391V5.37418L29.8186 6.04194V4.81003L33.1919 3.59539H33.3646Z" fill="white"/> -->
</g>
<defs>
<clipPath id="clip0_27_3661">
<rect width="40.0909" height="40.0909" fill="white"/>
</clipPath>
</defs>
</svg>
