<svg width="39" height="43" viewBox="0 0 39 43" fill="none" xmlns="http://www.w3.org/2000/svg">
<path d="M6.04322 0.626465H25.665C27.2257 0.626465 28.6444 1.28214 29.6739 2.34209C30.7033 3.40205 31.3401 4.86288 31.3401 6.4698V19.5018C31.3401 21.1087 30.7033 22.5695 29.6739 23.6295C28.6444 24.6894 27.2257 25.3451 25.665 25.3451H15.8525L7.23432 32.972C6.83508 33.3253 6.23129 33.2778 5.88814 32.8633C5.71987 32.6595 5.64398 32.4081 5.66048 32.1601L6.1191 25.3417H6.04322C4.48258 25.3417 3.06381 24.686 2.03439 23.6261C1.00496 22.5695 0.368164 21.1087 0.368164 19.5018V6.4698C0.368164 4.86288 1.00496 3.40205 2.03439 2.34209C3.06051 1.28214 4.47928 0.626465 6.04322 0.626465ZM34.1248 10.1321C35.2367 10.3529 36.2332 10.9168 37.0052 11.7118C38.0116 12.748 38.6385 14.1782 38.6385 15.7546V28.7866C38.6385 30.3629 38.0149 31.7932 37.0052 32.8293C35.9989 33.8655 34.6098 34.511 33.0789 34.511H32.8776L33.3462 41.455C33.3594 41.6725 33.2967 41.8967 33.1482 42.0733C32.8479 42.4369 32.3167 42.4776 31.967 42.1685L23.3158 34.2868H11.9195L17.5319 28.4095H29.4231C32.0165 28.4095 34.1413 26.225 34.1413 23.5513V10.516C34.138 10.3869 34.1347 10.2578 34.1248 10.1321ZM8.84115 15.4658C8.31324 15.4658 7.88431 15.0242 7.88431 14.4806C7.88431 13.937 8.31324 13.4954 8.84115 13.4954H18.855C19.3829 13.4954 19.8118 13.937 19.8118 14.4806C19.8118 15.0242 19.3829 15.4658 18.855 15.4658H8.84115ZM8.84115 10.5873C8.31324 10.5873 7.88431 10.1457 7.88431 9.60209C7.88431 9.05853 8.31324 8.61688 8.84115 8.61688H23.0354C23.5633 8.61688 23.9922 9.05853 23.9922 9.60209C23.9922 10.1457 23.5633 10.5873 23.0354 10.5873H8.84115ZM25.6617 2.59689H6.04322C5.01049 2.59689 4.07015 3.03174 3.38716 3.73498C2.70417 4.43822 2.28184 5.40305 2.28184 6.4698V19.5018C2.28184 20.5651 2.70417 21.5334 3.38716 22.2366C4.07015 22.9398 5.01049 23.3747 6.04322 23.3747H7.14523V23.3781L7.20792 23.3815C7.73253 23.4189 8.13177 23.8877 8.09547 24.4278L7.72264 29.9518L14.8297 23.6601C15.0012 23.4834 15.2388 23.3747 15.5027 23.3747H25.6617C26.6945 23.3747 27.6348 22.9398 28.3178 22.2366C29.0008 21.5334 29.4231 20.5651 29.4231 19.5018V6.4698C29.4231 5.40645 29.0008 4.43822 28.3178 3.73498C27.6381 3.03174 26.6978 2.59689 25.6617 2.59689Z" fill="white"/>
</svg>
