<svg width="14" height="14" viewBox="0 0 14 14" fill="none" xmlns="http://www.w3.org/2000/svg">
<path d="M9.73589 1.0538C9.94889 0.836547 10.2028 0.663662 10.4831 0.545143C10.7633 0.426624 11.0642 0.364822 11.3685 0.36331C11.6727 0.361797 11.9742 0.420603 12.2556 0.53633C12.537 0.652056 12.7927 0.822407 13.0078 1.03754C13.223 1.25266 13.3934 1.5083 13.5091 1.78968C13.6249 2.07105 13.6837 2.37258 13.6822 2.67683C13.6807 2.98108 13.619 3.28201 13.5005 3.56225C13.382 3.84248 13.2091 4.09645 12.9919 4.30947L12.2572 5.04547L9.00056 1.7888L9.73556 1.05347L9.73589 1.0538ZM8.41156 2.3788L1.67989 9.11114C1.42595 9.36505 1.24496 9.68258 1.15589 10.0305L0.346892 13.1921C0.329042 13.2622 0.329716 13.3357 0.348849 13.4053C0.367983 13.475 0.404916 13.5386 0.456023 13.5897C0.50713 13.6408 0.570652 13.6777 0.640349 13.6968C0.710046 13.716 0.783522 13.7167 0.853559 13.6988L4.01589 12.8908C4.36403 12.8019 4.68181 12.6209 4.93589 12.3668L11.6676 5.63414L8.41156 2.3788Z" fill="white"/>
</svg>
