<svg width="24" height="25" viewBox="0 0 24 25" fill="none" xmlns="http://www.w3.org/2000/svg">
<rect x="0.5" y="1" width="23" height="23" rx="9.5" fill="#1560BD"/>
<path fill-rule="evenodd" clip-rule="evenodd" d="M10.6882 16.514L15.0814 10.8327C15.3202 10.5264 15.405 10.1721 15.3255 9.81149C15.2565 9.48363 15.0549 9.17189 14.7524 8.93539L14.0149 8.34953C13.3729 7.83892 12.5771 7.89267 12.1208 8.47853L11.6273 9.11867C11.5637 9.19876 11.5796 9.31701 11.6592 9.38151C11.6592 9.38151 12.906 10.3812 12.9325 10.4027C13.0174 10.4834 13.0811 10.5909 13.097 10.7198C13.1236 10.9725 12.9485 11.209 12.6885 11.2412C12.5664 11.2573 12.4497 11.2197 12.3648 11.1498L11.0543 10.1071C10.9906 10.0593 10.8951 10.0695 10.8421 10.134L7.72757 14.1651C7.52595 14.4178 7.45697 14.7456 7.52595 15.0627L7.92388 16.7881C7.94511 16.8794 8.02469 16.9439 8.1202 16.9439L9.87111 16.9224C10.1895 16.9171 10.4866 16.7719 10.6882 16.514ZM13.1398 15.9766H15.9949C16.2734 15.9766 16.5 16.2061 16.5 16.4883C16.5 16.771 16.2734 17 15.9949 17H13.1398C12.8613 17 12.6347 16.771 12.6347 16.4883C12.6347 16.2061 12.8613 15.9766 13.1398 15.9766Z" fill="white"/>
<rect x="0.5" y="1" width="23" height="23" rx="9.5" stroke="white"/>
</svg>
