<svg width="30" height="41" viewBox="0 0 30 41" fill="none" xmlns="http://www.w3.org/2000/svg">
<path d="M13.2621 40.3897C12.29 40.3897 11.3578 40.0036 10.6705 39.3162C9.9832 38.6289 9.59706 37.6967 9.59706 36.7247V33.0597H20.5921V36.7247C20.5921 37.6967 20.2059 38.6289 19.5186 39.3162C18.8313 40.0036 17.8991 40.3897 16.9271 40.3897H13.2621ZM15.0946 0.074707C16.3956 0.074707 17.6417 0.239632 18.8512 0.551157C20.9952 3.42818 22.4246 8.70578 22.4246 14.7347C22.4246 18.9128 21.7282 22.7427 20.5921 27.5622C20.5921 28.5342 20.2059 29.4664 19.5186 30.1537C18.8313 30.8411 17.8991 31.2272 16.9271 31.2272H13.2621C12.29 31.2272 11.3578 30.8411 10.6705 30.1537C9.9832 29.4664 9.59706 28.5342 9.59706 27.5622C8.46091 22.7427 7.76457 18.9128 7.76457 14.7347C7.76457 8.70578 9.19391 3.42818 11.3379 0.551157C12.5474 0.239632 13.7935 0.074707 15.0946 0.074707ZM29.7546 12.9022C29.7546 18.7295 26.3644 27.4156 21.435 29.7795C23.1759 26.4444 24.2571 19.9207 24.2571 14.7347C24.2571 9.54873 23.1759 4.85753 21.435 1.52238C26.3644 3.8863 29.7546 7.07485 29.7546 12.9022ZM0.43457 12.9022C0.43457 7.07485 3.82469 3.8863 8.75412 1.52238C7.01324 4.85753 5.93207 9.54873 5.93207 14.7347C5.93207 19.9207 7.01324 26.4444 8.75412 29.7795C3.82469 27.4156 0.43457 18.7295 0.43457 12.9022Z" fill="white"/>
</svg>
