<svg width="25" height="24" viewBox="0 0 25 24" fill="none" xmlns="http://www.w3.org/2000/svg">
<path d="M13.3577 6.85721C13.3577 7.08454 13.2674 7.30256 13.1066 7.4633C12.9459 7.62405 12.7279 7.71436 12.5006 7.71436C12.2732 7.71436 12.0552 7.62405 11.8945 7.4633C11.7337 7.30256 11.6434 7.08454 11.6434 6.85721C11.6434 6.62988 11.7337 6.41187 11.8945 6.25112C12.0552 6.09038 12.2732 6.00007 12.5006 6.00007C12.7279 6.00007 12.9459 6.09038 13.1066 6.25112C13.2674 6.41187 13.3577 6.62988 13.3577 6.85721ZM11.8577 10.0715V16.5001C11.8577 16.6706 11.9254 16.8341 12.046 16.9546C12.1665 17.0752 12.3301 17.1429 12.5006 17.1429C12.6711 17.1429 12.8346 17.0752 12.9551 16.9546C13.0757 16.8341 13.1434 16.6706 13.1434 16.5001V10.0715C13.1434 9.901 13.0757 9.73749 12.9551 9.61693C12.8346 9.49637 12.6711 9.42864 12.5006 9.42864C12.3301 9.42864 12.1665 9.49637 12.046 9.61693C11.9254 9.73749 11.8577 9.901 11.8577 10.0715ZM2.21484 12.0001C2.21484 6.31978 6.82027 1.71436 12.5006 1.71436C18.1808 1.71436 22.7863 6.31978 22.7863 12.0001C22.7863 17.6804 18.1808 22.2858 12.5006 22.2858C6.82027 22.2858 2.21484 17.6804 2.21484 12.0001ZM12.5006 3.00007C7.52999 3.00007 3.50056 7.0295 3.50056 12.0001C3.50056 16.9706 7.52999 21.0001 12.5006 21.0001C17.4711 21.0001 21.5006 16.9706 21.5006 12.0001C21.5006 7.0295 17.4711 3.00007 12.5006 3.00007Z" fill="#020F1F"/>
</svg>
