<svg width="33" height="33" viewBox="0 0 33 33" fill="none" xmlns="http://www.w3.org/2000/svg">
<path d="M20.169 12.7138L13.4092 19.4736C12.5408 18.6053 12.0065 17.4163 12.0065 16.0937C12.0065 13.4485 14.144 11.311 16.7891 11.311C18.1117 11.311 19.3007 11.8454 20.169 12.7138Z" stroke="#666666" stroke-width="2.00391" stroke-linecap="round" stroke-linejoin="round"/>
<path d="M24.5642 7.77072C22.2263 6.00729 19.5545 5.04541 16.7891 5.04541C12.0732 5.04541 7.67797 7.82416 4.61868 12.6335C3.41633 14.5172 3.41633 17.6834 4.61868 19.5671C5.67407 21.2236 6.90313 22.6531 8.23907 23.802" stroke="#666666" stroke-width="2.00391" stroke-linecap="round" stroke-linejoin="round"/>
<path d="M12.0065 26.1536C13.5294 26.7949 15.1459 27.1422 16.7891 27.1422C21.505 27.1422 25.9002 24.3635 28.9595 19.5541C30.1619 17.6704 30.1619 14.5042 28.9595 12.6206C28.5187 11.9259 28.0377 11.2713 27.5434 10.6567" stroke="#666666" stroke-width="2.00391" stroke-linecap="round" stroke-linejoin="round"/>
<path d="M21.4782 17.0293C21.1308 18.913 19.5945 20.4493 17.7108 20.7966" stroke="#666666" stroke-width="2.00391" stroke-linecap="round" stroke-linejoin="round"/>
</svg>
