<svg width="33" height="33" viewBox="0 0 33 33" fill="none" xmlns="http://www.w3.org/2000/svg">
<path d="M20.169 13.4403L13.4092 20.2002C12.5408 19.3318 12.0065 18.1428 12.0065 16.8203C12.0065 14.1751 14.144 12.0376 16.7891 12.0376C18.1117 12.0376 19.3007 12.572 20.169 13.4403Z" stroke="#666666" stroke-width="2.00391" stroke-linecap="round" stroke-linejoin="round"/>
<path d="M24.5642 8.49729C22.2263 6.73385 19.5545 5.77197 16.7891 5.77197C12.0732 5.77197 7.67797 8.55072 4.61868 13.3601C3.41633 15.2438 3.41633 18.4099 4.61868 20.2936C5.67407 21.9502 6.90313 23.3796 8.23907 24.5285" stroke="#666666" stroke-width="2.00391" stroke-linecap="round" stroke-linejoin="round"/>
<path d="M12.0065 26.8802C13.5294 27.5214 15.1459 27.8688 16.7891 27.8688C21.505 27.8688 25.9002 25.09 28.9595 20.2806C30.1619 18.397 30.1619 15.2308 28.9595 13.3471C28.5187 12.6524 28.0377 11.9978 27.5434 11.3833" stroke="#666666" stroke-width="2.00391" stroke-linecap="round" stroke-linejoin="round"/>
<path d="M21.4782 17.7559C21.1308 19.6395 19.5945 21.1759 17.7108 21.5232" stroke="#666666" stroke-width="2.00391" stroke-linecap="round" stroke-linejoin="round"/>
<path d="M13.4091 20.1997L3.42969 30.1792" stroke="#666666" stroke-width="2.00391" stroke-linecap="round" stroke-linejoin="round"/>
<path d="M30.1485 3.46094L20.1691 13.4404" stroke="#666666" stroke-width="2.00391" stroke-linecap="round" stroke-linejoin="round"/>
</svg>
