<svg width="24" height="24" viewBox="0 0 24 24" fill="none" xmlns="http://www.w3.org/2000/svg">
<path d="M16.0204 17.61C14.212 19.0137 11.9366 19.6755 9.65737 19.4606C7.37817 19.2458 5.26649 18.1705 3.75219 16.4536C2.23789 14.7366 1.43478 12.5072 1.50636 10.219C1.57793 7.93079 2.5188 5.75588 4.13744 4.13695C5.75637 2.51831 7.93128 1.57744 10.2195 1.50587C12.5077 1.4343 14.7371 2.2374 16.454 3.7517C18.171 5.266 19.2463 7.37768 19.4611 9.65688C19.676 11.9361 19.0142 14.2115 17.6104 16.02L22.1704 20.58C22.3185 20.7175 22.4268 20.8924 22.4838 21.0862C22.5408 21.2801 22.5445 21.4858 22.4944 21.6816C22.4444 21.8773 22.3424 22.056 22.1994 22.1987C22.0563 22.3414 21.8774 22.4429 21.6814 22.4925C21.4859 22.5426 21.2804 22.5391 21.0867 22.4823C20.8929 22.4256 20.7181 22.3177 20.5804 22.17L16.0204 17.61ZM17.2504 10.5C17.2638 9.60536 17.0991 8.71704 16.766 7.88668C16.4329 7.05631 15.938 6.30048 15.31 5.66314C14.6821 5.02579 13.9338 4.51967 13.1084 4.17421C12.2831 3.82875 11.3974 3.65084 10.5027 3.65084C9.608 3.65084 8.72224 3.82875 7.89693 4.17421C7.07162 4.51967 6.32325 5.02579 5.69534 5.66314C5.06743 6.30048 4.57252 7.05631 4.2394 7.88668C3.90628 8.71704 3.7416 9.60536 3.75494 10.5C3.78136 12.2721 4.50391 13.9628 5.76648 15.2067C7.02906 16.4506 8.7303 17.1478 10.5027 17.1478C12.2751 17.1478 13.9763 16.4506 15.2389 15.2067C16.5015 13.9628 17.224 12.2721 17.2504 10.5Z" fill="#666666"/>
</svg>
