<svg width="14" height="14" viewBox="0 0 14 14" fill="none" xmlns="http://www.w3.org/2000/svg">
<path d="M5.66732 3.04557H8.33398C8.33398 2.69195 8.19351 2.35281 7.94346 2.10276C7.69341 1.85272 7.35427 1.71224 7.00065 1.71224C6.64703 1.71224 6.30789 1.85272 6.05784 2.10276C5.80779 2.35281 5.66732 2.69195 5.66732 3.04557ZM4.33398 3.04557C4.33398 2.33833 4.61494 1.66005 5.11503 1.15995C5.61513 0.659858 6.29341 0.378906 7.00065 0.378906C7.70789 0.378906 8.38617 0.659858 8.88627 1.15995C9.38637 1.66005 9.66732 2.33833 9.66732 3.04557H13.0007C13.1775 3.04557 13.347 3.11581 13.4721 3.24083C13.5971 3.36586 13.6673 3.53543 13.6673 3.71224C13.6673 3.88905 13.5971 4.05862 13.4721 4.18364C13.347 4.30867 13.1775 4.37891 13.0007 4.37891H12.4127L11.822 11.2722C11.7652 11.9379 11.4606 12.558 10.9686 13.0098C10.4765 13.4616 9.83271 13.7123 9.16465 13.7122H4.83665C4.16859 13.7123 3.52483 13.4616 3.03275 13.0098C2.54067 12.558 2.2361 11.9379 2.17932 11.2722L1.58865 4.37891H1.00065C0.82384 4.37891 0.654271 4.30867 0.529246 4.18364C0.404222 4.05862 0.333984 3.88905 0.333984 3.71224C0.333984 3.53543 0.404222 3.36586 0.529246 3.24083C0.654271 3.11581 0.82384 3.04557 1.00065 3.04557H4.33398ZM9.00065 7.04557C9.00065 6.86876 8.93041 6.69919 8.80539 6.57417C8.68036 6.44914 8.51079 6.37891 8.33398 6.37891C8.15717 6.37891 7.9876 6.44914 7.86258 6.57417C7.73756 6.69919 7.66732 6.86876 7.66732 7.04557V9.71224C7.66732 9.88905 7.73756 10.0586 7.86258 10.1836C7.9876 10.3087 8.15717 10.3789 8.33398 10.3789C8.51079 10.3789 8.68036 10.3087 8.80539 10.1836C8.93041 10.0586 9.00065 9.88905 9.00065 9.71224V7.04557ZM5.66732 6.37891C5.84413 6.37891 6.0137 6.44914 6.13872 6.57417C6.26375 6.69919 6.33398 6.86876 6.33398 7.04557V9.71224C6.33398 9.88905 6.26375 10.0586 6.13872 10.1836C6.0137 10.3087 5.84413 10.3789 5.66732 10.3789C5.49051 10.3789 5.32094 10.3087 5.19591 10.1836C5.07089 10.0586 5.00065 9.88905 5.00065 9.71224V7.04557C5.00065 6.86876 5.07089 6.69919 5.19591 6.57417C5.32094 6.44914 5.49051 6.37891 5.66732 6.37891ZM3.50732 11.1589C3.53572 11.4918 3.6881 11.802 3.93428 12.0279C4.18046 12.2538 4.50251 12.3791 4.83665 12.3789H9.16465C9.49857 12.3788 9.82028 12.2534 10.0662 12.0275C10.3121 11.8016 10.4643 11.4916 10.4927 11.1589L11.074 4.37891H2.92732L3.50732 11.1589Z" fill="#1560BD"/>
</svg>
